<svg width="495" height="250" viewBox="0 0 495 250" fill="none" xmlns="http://www.w3.org/2000/svg" role="img" aria-labelledby="titleId descId">
  <title id="titleId">IT-Bill's Top Languages</title>
  <desc id="descId">Language proportion used across public repositories excluding CS301-TBG-Battle-System, CS311-AI: JavaScript 35.8%, Java 30.7%, C 10.6%, HTML 5.5%, Dart 5.3%, Jupyter Notebook 2.1%, Other 10.0%.</desc>
  <style>
    .title { font: 600 18px 'Segoe UI', Ubuntu, Sans-Serif; fill: #2f80ed; }
    .label { font: 600 13px 'Segoe UI', Ubuntu, Sans-Serif; fill: #434d58; }
    .value { font: 600 13px 'Segoe UI', Ubuntu, Sans-Serif; fill: #434d58; }
  </style>
  <rect x="0.5" y="0.5" width="494" height="249" rx="4.5" fill="#fffefe" stroke="#e4e2e2"/>
  <text x="24" y="36" class="title">Top Languages</text>
  <rect x="24" y="58" width="447" height="10" rx="5" fill="#eff2f5" />
  <rect x="24.00" y="58" width="160.13" height="10" fill="#f1e05a" rx="2" />
  <rect x="184.13" y="58" width="137.14" height="10" fill="#b07219" rx="2" />
  <rect x="321.27" y="58" width="47.35" height="10" fill="#555555" rx="2" />
  <rect x="368.62" y="58" width="24.75" height="10" fill="#e34c26" rx="2" />
  <rect x="393.37" y="58" width="23.60" height="10" fill="#00B4AB" rx="2" />
  <rect x="416.97" y="58" width="9.53" height="10" fill="#DA5B0B" rx="2" />
  <rect x="426.50" y="58" width="44.50" height="10" fill="#8b949e" rx="2" />
  <circle cx="29" cy="88" r="5" fill="#f1e05a" />
  <text x="42" y="92" class="label">JavaScript</text>
  <text x="471" y="92" class="value" text-anchor="end">35.8%</text>
  <circle cx="29" cy="110" r="5" fill="#b07219" />
  <text x="42" y="114" class="label">Java</text>
  <text x="471" y="114" class="value" text-anchor="end">30.7%</text>
  <circle cx="29" cy="132" r="5" fill="#555555" />
  <text x="42" y="136" class="label">C</text>
  <text x="471" y="136" class="value" text-anchor="end">10.6%</text>
  <circle cx="29" cy="154" r="5" fill="#e34c26" />
  <text x="42" y="158" class="label">HTML</text>
  <text x="471" y="158" class="value" text-anchor="end">5.5%</text>
  <circle cx="29" cy="176" r="5" fill="#00B4AB" />
  <text x="42" y="180" class="label">Dart</text>
  <text x="471" y="180" class="value" text-anchor="end">5.3%</text>
  <circle cx="29" cy="198" r="5" fill="#DA5B0B" />
  <text x="42" y="202" class="label">Jupyter Notebook</text>
  <text x="471" y="202" class="value" text-anchor="end">2.1%</text>
  <circle cx="29" cy="220" r="5" fill="#8b949e" />
  <text x="42" y="224" class="label">Other</text>
  <text x="471" y="224" class="value" text-anchor="end">10.0%</text>
</svg>