<svg width="495" height="250" viewBox="0 0 495 250" fill="none" xmlns="http://www.w3.org/2000/svg" role="img" aria-labelledby="titleId descId">
  <title id="titleId">IT-Bill's Top Languages</title>
  <desc id="descId">Language proportion used across public repositories excluding CS301-TBG-Battle-System: Jupyter Notebook 33.3%, JavaScript 22.3%, Java 19.1%, Python 6.8%, C 6.6%, HTML 3.4%, Other 8.5%.</desc>
  <style>
    .title { font: 600 18px 'Segoe UI', Ubuntu, Sans-Serif; fill: #2f80ed; }
    .label { font: 600 13px 'Segoe UI', Ubuntu, Sans-Serif; fill: #434d58; }
    .value { font: 600 13px 'Segoe UI', Ubuntu, Sans-Serif; fill: #434d58; }
  </style>
  <rect x="0.5" y="0.5" width="494" height="249" rx="4.5" fill="#fffefe" stroke="#e4e2e2"/>
  <text x="24" y="36" class="title">Top Languages</text>
  <rect x="24" y="58" width="447" height="10" rx="5" fill="#eff2f5" />
  <rect x="24.00" y="58" width="148.81" height="10" fill="#DA5B0B" rx="2" />
  <rect x="172.81" y="58" width="99.55" height="10" fill="#f1e05a" rx="2" />
  <rect x="272.35" y="58" width="85.25" height="10" fill="#b07219" rx="2" />
  <rect x="357.61" y="58" width="30.56" height="10" fill="#3572A5" rx="2" />
  <rect x="388.16" y="58" width="29.44" height="10" fill="#555555" rx="2" />
  <rect x="417.60" y="58" width="15.39" height="10" fill="#e34c26" rx="2" />
  <rect x="432.99" y="58" width="38.01" height="10" fill="#8b949e" rx="2" />
  <circle cx="29" cy="88" r="5" fill="#DA5B0B" />
  <text x="42" y="92" class="label">Jupyter Notebook</text>
  <text x="471" y="92" class="value" text-anchor="end">33.3%</text>
  <circle cx="29" cy="110" r="5" fill="#f1e05a" />
  <text x="42" y="114" class="label">JavaScript</text>
  <text x="471" y="114" class="value" text-anchor="end">22.3%</text>
  <circle cx="29" cy="132" r="5" fill="#b07219" />
  <text x="42" y="136" class="label">Java</text>
  <text x="471" y="136" class="value" text-anchor="end">19.1%</text>
  <circle cx="29" cy="154" r="5" fill="#3572A5" />
  <text x="42" y="158" class="label">Python</text>
  <text x="471" y="158" class="value" text-anchor="end">6.8%</text>
  <circle cx="29" cy="176" r="5" fill="#555555" />
  <text x="42" y="180" class="label">C</text>
  <text x="471" y="180" class="value" text-anchor="end">6.6%</text>
  <circle cx="29" cy="198" r="5" fill="#e34c26" />
  <text x="42" y="202" class="label">HTML</text>
  <text x="471" y="202" class="value" text-anchor="end">3.4%</text>
  <circle cx="29" cy="220" r="5" fill="#8b949e" />
  <text x="42" y="224" class="label">Other</text>
  <text x="471" y="224" class="value" text-anchor="end">8.5%</text>
</svg>